<?xml version="1.0" encoding="UTF-8" standalone="no"?>
<svg
   xmlns:dc="http://purl.org/dc/elements/1.1/"
   xmlns:cc="http://creativecommons.org/ns#"
   xmlns:rdf="http://www.w3.org/1999/02/22-rdf-syntax-ns#"
   xmlns:svg="http://www.w3.org/2000/svg"
   xmlns="http://www.w3.org/2000/svg"
   xmlns:sodipodi="http://sodipodi.sourceforge.net/DTD/sodipodi-0.dtd"
   xmlns:inkscape="http://www.inkscape.org/namespaces/inkscape"
   width="47.625mm"
   height="21.793444mm"
   viewBox="0 0 47.625 21.793444"
   version="1.1"
   id="svg1285"
   inkscape:version="1.0.1 (c497b03c, 2020-09-10)"
   sodipodi:docname="logo-wifiguay.svg">
  <defs
     id="defs1279" />
  <sodipodi:namedview
     id="base"
     pagecolor="#ffffff"
     bordercolor="#666666"
     borderopacity="1.0"
     inkscape:pageopacity="0.0"
     inkscape:pageshadow="2"
     inkscape:zoom="4.9222489"
     inkscape:cx="90"
     inkscape:cy="41.18446"
     inkscape:document-units="mm"
     inkscape:current-layer="layer1"
     inkscape:document-rotation="0"
     showgrid="false"
     inkscape:window-width="1920"
     inkscape:window-height="1036"
     inkscape:window-x="0"
     inkscape:window-y="22"
     inkscape:window-maximized="0" />
  <metadata
     id="metadata1282">
    <rdf:RDF>
      <cc:Work
         rdf:about="">
        <dc:format>image/svg+xml</dc:format>
        <dc:type
           rdf:resource="http://purl.org/dc/dcmitype/StillImage" />
        <dc:title></dc:title>
      </cc:Work>
    </rdf:RDF>
  </metadata>
  <g
     inkscape:label="Capa 1"
     inkscape:groupmode="layer"
     id="layer1"
     transform="translate(-124.6875,-94.103278)">
    <path
       id="path479"
       style="font-style:normal;font-variant:normal;font-weight:bold;font-stretch:normal;font-size:11.5135px;line-height:1.25;font-family:Ubuntu;-inkscape-font-specification:'Ubuntu, Bold';font-variant-ligatures:normal;font-variant-caps:normal;font-variant-numeric:normal;font-variant-east-asian:normal;letter-spacing:0.173589px;fill:#000000;fill-opacity:1;stroke-width:0.263014"
       d="m 140.69582,101.05376 c -0.86735,0 -1.52316,0.23037 -1.96835,0.69091 -0.43751,0.46054 -0.65629,1.08208 -0.65629,1.865 v 6.37894 h 1.71514 v -4.62865 h 2.11873 v -1.42782 h -2.11873 v -0.29921 c 0,-0.16119 0.0158,-0.31091 0.0465,-0.44907 0.0384,-0.13816 0.0958,-0.2573 0.1726,-0.35708 0.0844,-0.0998 0.19567,-0.17623 0.33383,-0.22996 0.14584,-0.0614 0.32244,-0.092 0.52968,-0.092 0.15351,0 0.30323,0.0111 0.44907,0.0341 0.15351,0.023 0.29164,0.0615 0.41444,0.11524 l 0.29921,-1.34721 c -0.14584,-0.0614 -0.32613,-0.11886 -0.54105,-0.1726 -0.20724,-0.0537 -0.47189,-0.0806 -0.79427,-0.0806 z m -5.27461,0.11524 c -0.27633,0 -0.51778,0.0923 -0.72502,0.27647 -0.19957,0.17654 -0.29972,0.42219 -0.29972,0.7369 0,0.3147 0.10015,0.56406 0.29972,0.74828 0.20724,0.17654 0.44869,0.26458 0.72502,0.26458 0.27633,0 0.5146,-0.088 0.71417,-0.26458 0.20724,-0.18422 0.31058,-0.43358 0.31058,-0.74828 0,-0.31471 -0.10334,-0.56036 -0.31058,-0.7369 -0.19957,-0.18422 -0.43784,-0.27647 -0.71417,-0.27647 z m -10.73371,2.76314 c 0.16887,0.5987 0.34177,1.19387 0.51831,1.7849 0.18422,0.58335 0.3603,1.13953 0.52917,1.66915 0.17654,0.52194 0.34576,1.00537 0.50695,1.45056 0.16119,0.44518 0.31091,0.82897 0.44907,1.15135 h 1.33531 c 0.19189,-0.58336 0.37219,-1.16273 0.54106,-1.7384 0.17654,-0.57567 0.34154,-1.15504 0.49506,-1.73839 0.15351,0.58335 0.32272,1.16272 0.50694,1.73839 0.18422,0.57567 0.3719,1.15504 0.56379,1.7384 h 1.33584 c 0.13816,-0.32238 0.28788,-0.70617 0.44907,-1.15135 0.16886,-0.44519 0.33757,-0.92862 0.50643,-1.45056 0.17654,-0.52962 0.35313,-1.0858 0.52968,-1.66915 0.18421,-0.59103 0.36082,-1.1862 0.52968,-1.7849 h -1.7849 c -0.0614,0.27632 -0.13046,0.57944 -0.20722,0.9095 -0.0691,0.32237 -0.14553,0.6566 -0.22996,1.00201 -0.0768,0.3454 -0.16111,0.6944 -0.25322,1.04748 -0.0921,0.3454 -0.18436,0.67963 -0.27647,1.002 -0.0998,-0.33772 -0.19573,-0.68355 -0.28784,-1.03663 -0.0921,-0.35308 -0.18015,-0.69837 -0.26458,-1.03611 -0.0844,-0.3454 -0.16509,-0.67541 -0.24184,-0.99012 -0.0768,-0.32238 -0.14583,-0.62181 -0.20723,-0.89813 h -1.24385 c -0.0614,0.27632 -0.13416,0.57575 -0.21859,0.89813 -0.0768,0.31471 -0.1611,0.64472 -0.25321,0.99012 -0.0844,0.33774 -0.17669,0.68303 -0.27647,1.03611 -0.0921,0.35308 -0.18805,0.69891 -0.28784,1.03663 -0.0921,-0.32237 -0.18436,-0.6566 -0.27647,-1.002 -0.0844,-0.35308 -0.16878,-0.70208 -0.25321,-1.04748 -0.0768,-0.34541 -0.1532,-0.67964 -0.22996,-1.00201 -0.0691,-0.33006 -0.13446,-0.63318 -0.19586,-0.9095 z m 9.88157,0 v 6.05596 h 1.71565 v -6.05596 z m 8.3261,0 v 6.05596 h 1.71566 v -6.05596 z"
       sodipodi:nodetypes="scsccccccscccsccccssscscscscsccccccccccccccccccccsccccccccccccccccccccccc" />
    <path
       id="path485"
       style="font-style:normal;font-variant:normal;font-weight:bold;font-stretch:normal;font-size:11.5135px;line-height:1.25;font-family:Ubuntu;-inkscape-font-specification:'Ubuntu, Bold';font-variant-ligatures:normal;font-variant-caps:normal;font-variant-numeric:normal;font-variant-east-asian:normal;letter-spacing:0.173589px;fill:#0476b8;fill-opacity:1;stroke-width:0.263014"
       d="m 162.73169,103.7709 c -0.19957,0 -0.39936,0.0116 -0.59893,0.0346 -0.19189,0.0154 -0.37588,0.0386 -0.55242,0.0692 -0.17655,0.023 -0.34155,0.0536 -0.49506,0.092 -0.14583,0.0307 -0.26867,0.0613 -0.36845,0.092 l 0.21859,1.38183 c 0.20724,-0.0767 0.4529,-0.1342 0.7369,-0.1726 0.284,-0.0461 0.57184,-0.0693 0.86352,-0.0693 0.43751,0 0.74485,0.0881 0.92139,0.26459 0.17654,0.17654 0.26458,0.41112 0.26458,0.7028 v 0.16071 c -0.10746,-0.0307 -0.24928,-0.0534 -0.42581,-0.0687 -0.16887,-0.023 -0.36497,-0.0346 -0.58757,-0.0346 -0.33005,0 -0.64847,0.0343 -0.95549,0.10335 -0.30703,0.0614 -0.57958,0.16525 -0.81752,0.31109 -0.23795,0.14584 -0.42984,0.34143 -0.57568,0.58705 -0.13816,0.24562 -0.20722,0.54505 -0.20722,0.89813 0,0.36844 0.0617,0.67946 0.18448,0.93276 0.12281,0.2533 0.29941,0.46048 0.52969,0.62167 0.23026,0.15351 0.50229,0.26475 0.817,0.33383 0.32237,0.0691 0.67928,0.10387 1.07074,0.10387 0.62173,0 1.15153,-0.0385 1.58905,-0.11524 0.4375,-0.0691 0.77911,-0.13075 1.02474,-0.18448 v -3.56929 c 0,-0.37611 -0.0422,-0.7172 -0.12661,-1.02423 -0.0844,-0.30703 -0.23046,-0.56798 -0.4377,-0.7829 -0.19957,-0.21492 -0.4679,-0.38044 -0.80563,-0.49558 -0.33773,-0.11513 -0.76,-0.1726 -1.26659,-0.1726 z m -13.35267,0.0233 c -0.48357,0 -0.91744,0.0728 -1.30122,0.21859 -0.38378,0.13817 -0.7101,0.33796 -0.97875,0.59893 -0.26097,0.26097 -0.46025,0.5757 -0.59841,0.94413 -0.13817,0.36076 -0.20722,0.76352 -0.20722,1.20871 0,0.89038 0.22246,1.5852 0.66766,2.08411 0.44518,0.49125 1.08623,0.73691 1.92288,0.73691 0.23027,0 0.44115,-0.0195 0.63303,-0.0579 0.19957,-0.046 0.39146,-0.1109 0.57568,-0.19534 v 0.21859 c 0,0.33773 -0.10385,0.61397 -0.31109,0.82889 -0.19957,0.21492 -0.54488,0.32246 -1.03612,0.32246 -0.3761,0 -0.7135,-0.0306 -1.01286,-0.092 -0.29167,-0.0614 -0.57212,-0.14627 -0.84077,-0.25373 l -0.29921,1.43919 c 0.31471,0.10746 0.65631,0.19233 1.02475,0.25373 0.36842,0.0691 0.73692,0.10335 1.10536,0.10335 1.05156,0 1.82651,-0.24197 2.32543,-0.72554 0.5066,-0.47589 0.76017,-1.20867 0.76017,-2.19883 v -5.08909 c -0.15352,-0.046 -0.33012,-0.0882 -0.52969,-0.12661 -0.19189,-0.0461 -0.39538,-0.0846 -0.6103,-0.11524 -0.21492,-0.0307 -0.43369,-0.0534 -0.65629,-0.0687 -0.21491,-0.023 -0.42579,-0.0346 -0.63303,-0.0346 z m 4.15426,0.13798 v 3.37343 c 0,0.41449 0.0422,0.79458 0.12661,1.13998 0.0844,0.34541 0.22625,0.64485 0.42582,0.89814 0.19956,0.24563 0.46842,0.43752 0.80615,0.57568 0.3454,0.13816 0.77505,0.20722 1.28932,0.20722 0.5066,0 0.99054,-0.0385 1.45108,-0.11524 0.46054,-0.0691 0.83642,-0.14604 1.1281,-0.23048 v -5.84873 h -1.71566 v 4.67465 c -0.10746,0.0154 -0.2303,0.0306 -0.36846,0.046 -0.13816,0.008 -0.26838,0.0114 -0.39119,0.0114 -0.39913,0 -0.67168,-0.12284 -0.81752,-0.36846 -0.14584,-0.24562 -0.21859,-0.64469 -0.21859,-1.19734 v -3.16621 z m 12.71137,0 c 0.34541,1.18972 0.71391,2.26463 1.10536,3.22409 0.39146,0.95178 0.78315,1.81108 1.17461,2.57865 -0.11514,0.29168 -0.25747,0.51836 -0.42633,0.67955 -0.16119,0.16886 -0.39526,0.25321 -0.70229,0.25321 -0.15351,0 -0.29902,-0.0116 -0.43718,-0.0346 -0.13817,-0.023 -0.29578,-0.0652 -0.47232,-0.12661 l -0.29921,1.36994 c 0.14584,0.0614 0.32983,0.11517 0.55242,0.16123 0.23027,0.0537 0.48014,0.0806 0.7488,0.0806 0.32237,0 0.60231,-0.0385 0.84025,-0.11524 0.24562,-0.0691 0.4644,-0.18401 0.65629,-0.3452 0.1919,-0.15351 0.3685,-0.35279 0.52969,-0.59841 0.16119,-0.23795 0.3225,-0.52999 0.48369,-0.8754 0.44519,-0.95946 0.85586,-1.9495 1.23197,-2.97036 0.37611,-1.02087 0.7367,-2.11476 1.0821,-3.28145 h -1.77302 c -0.0768,0.29935 -0.16531,0.62567 -0.2651,0.97875 -0.0921,0.3454 -0.19175,0.6986 -0.2992,1.05936 -0.0998,0.35308 -0.20312,0.69839 -0.31058,1.03612 -0.10746,0.33773 -0.21131,0.64455 -0.31109,0.92087 -0.10746,-0.27632 -0.22239,-0.58314 -0.3452,-0.92087 -0.11513,-0.33773 -0.23058,-0.68304 -0.34572,-1.03612 -0.11513,-0.36076 -0.22637,-0.71396 -0.33383,-1.05936 -0.0998,-0.35308 -0.18782,-0.6794 -0.26458,-0.97875 z m -16.85427,1.24385 c 0.15352,0 0.28794,0.007 0.40308,0.0227 0.11513,0.008 0.21477,0.0193 0.29921,0.0346 v 2.73988 c -0.10746,0.0614 -0.23768,0.11517 -0.39119,0.16123 -0.15352,0.0461 -0.31852,0.0692 -0.49506,0.0692 -0.77525,0 -1.16324,-0.47973 -1.16324,-1.43919 0,-0.46054 0.11123,-0.84063 0.33383,-1.13998 0.22259,-0.29935 0.56051,-0.44855 1.01337,-0.44855 z m 13.64052,2.19883 c 0.11513,0 0.24166,0.008 0.37982,0.0233 0.13816,0.0154 0.242,0.0307 0.31109,0.046 v 1.30069 c -0.0921,0.0153 -0.21494,0.027 -0.36845,0.0346 -0.15352,0.008 -0.31483,0.0114 -0.48369,0.0114 -0.31471,0 -0.56407,-0.0496 -0.74828,-0.14934 -0.17654,-0.10746 -0.26458,-0.29566 -0.26458,-0.56431 0,-0.13816 0.0306,-0.25308 0.092,-0.3452 0.0614,-0.0921 0.14576,-0.16537 0.25322,-0.2191 0.10746,-0.0537 0.23028,-0.088 0.36845,-0.10336 0.14583,-0.023 0.29924,-0.0346 0.46044,-0.0346 z" />
    <path
       id="path3819-4"
       style="display:inline;fill:#ff0000;fill-opacity:1;stroke-width:3.16122;stroke-linecap:round;stroke-linejoin:round;paint-order:stroke fill markers;stop-color:#000000"
       d="m 143.7468,94.103278 a 1.0407854,1.0407854 0 0 0 -1.04076,1.04128 1.0407854,1.0407854 0 0 0 1.04076,1.039213 c 3.32477,1e-6 5.99808,2.673311 5.99808,5.998079 a 1.0407854,1.0407854 0 0 0 1.04129,1.04128 1.0407854,1.0407854 0 0 0 1.04076,-1.04128 c 0,-4.449734 -3.6304,-8.07857 -8.08013,-8.078572 z m 0,3.519165 a 1.0407854,1.0407854 0 0 0 -1.04076,1.040763 1.0407854,1.0407854 0 0 0 1.04076,1.04128 c 1.38121,2e-6 2.47995,1.096154 2.47995,2.477364 a 1.0407854,1.0407854 0 0 0 1.04077,1.04128 1.0407854,1.0407854 0 0 0 1.04076,-1.04128 c 0,-2.506174 -2.0553,-4.559404 -4.56148,-4.559407 z m 5.3e-4,3.518647 a 1.0407855,1.0407855 0 0 0 -1.04076,1.04076 1.0407855,1.0407855 0 0 0 1.04076,1.04077 1.0407855,1.0407855 0 0 0 1.04076,-1.04077 1.0407855,1.0407855 0 0 0 -1.04076,-1.04076 z m 10.97452,10.55491 c -0.65203,0 -1.18855,0.53655 -1.18855,1.18856 a 0.36054807,0.36054807 0 0 0 0.36018,0.35967 0.36054807,0.36054807 0 0 0 0.28836,-0.14521 c 0.7919,1.63211 2.84932,2.79771 5.26892,2.79776 2.41961,-5e-5 4.47757,-1.16564 5.26945,-2.79776 a 0.36054807,0.36054807 0 0 0 0.28835,0.14521 0.36054807,0.36054807 0 0 0 0.35967,-0.35967 c 0,-0.65201 -0.53602,-1.18856 -1.18804,-1.18856 a 0.36054807,0.36054807 0 0 0 -0.36018,0.35967 0.36054807,0.36054807 0 0 0 0.36018,0.36019 c 0.021,0 0.0408,0.004 0.061,0.006 -0.99748,1.3291 -2.78686,2.30684 -4.79041,2.30683 -2.00355,1e-5 -3.79239,-0.97773 -4.78988,-2.30683 0.0203,-0.003 0.04,-0.006 0.061,-0.006 a 0.36054807,0.36054807 0 0 0 0.36019,-0.36019 0.36054807,0.36054807 0 0 0 -0.36019,-0.35967 z" />
    <g
       id="g6795"
       transform="matrix(0.89722883,0,0,0.89722883,-579.10437,98.181328)" />
  </g>
</svg>
